Coordinates
version=1
nRows=4
nColumns=63
inDegrees=yes

Units are S.I. units (second, meters, Newtons, ...)
If the header above contains a line with 'inDegrees', this indicates whether rotational values are in degrees (yes) or radians (no).

endheader
time	pelvis_tilt	pelvis_list	pelvis_rotation	pelvis_tx	pelvis_ty	pelvis_tz	hip_flexion_r	hip_adduction_r	hip_rotation_r	knee_angle_r	knee_angle_r_beta	ankle_angle_r	subtalar_angle_r	mtp_angle_r	hip_flexion_l	hip_adduction_l	hip_rotation_l	knee_angle_l	knee_angle_l_beta	ankle_angle_l	subtalar_angle_l	mtp_angle_l	L5_S1_Flex_Ext	L5_S1_Lat_Bending	L5_S1_axial_rotation	L4_L5_Flex_Ext	L4_L5_Lat_Bending	L4_L5_axial_rotation	L3_L4_Flex_Ext	L3_L4_Lat_Bending	L3_L4_axial_rotation	L2_L3_Flex_Ext	L2_L3_Lat_Bending	L2_L3_axial_rotation	L1_L2_Flex_Ext	L1_L2_Lat_Bending	L1_L2_axial_rotation	L1_T12_Flex_Ext	L1_T12_Lat_Bending	L1_T12_axial_rotation	Abs_r3	Abs_r2	Abs_r1	Abs_t1	Abs_t2	neck_flexion	neck_bending	neck_rotation	arm_flex_r	arm_add_r	arm_rot_r	elbow_flex_r	pro_sup_r	wrist_flex_r	wrist_dev_r	arm_flex_l	arm_add_l	arm_rot_l	elbow_flex_l	pro_sup_l	wrist_flex_l	wrist_dev_l
      6.18333333	     -0.27185071	     -7.53861898	     89.09841400	      0.13338289	      0.65212542	      0.79973896	     -0.11907014	      1.04019198	      6.53169741	      5.51949612	      0.09633338	     29.78859867	      4.58581219	      0.00000000	      3.43471351	     -0.43375979	     -9.33717013	     13.24411528	      0.23115342	     32.67789719	     -1.17824661	      0.00000000	     -0.21796748	      0.64492620	     -0.76641302	     -0.40478740	      0.85775185	     -0.81431383	     -0.35809877	      1.56807356	     -0.81431383	     -0.24911503	      1.56807356	     -0.67061139	     -0.20240460	      1.31513351	     -0.62271058	     -0.12454662	      0.99899068	     -0.57480976	     -1.55691990	      7.29553416	     -4.26255928	      0.00000000	      0.00000000	     25.07523537	      1.75278724	      3.16877419	    -13.28537608	    -18.39600783	      5.53139344	     44.23582978	     87.78057734	     -2.82815063	      2.93781650	     15.97134631	     -9.51723877	      5.39932619	     58.62035081	     81.07081095	    -14.77542436	     -1.44120228
      6.20000000	     -0.24661037	     -7.61215374	     89.70565219	      0.13282636	      0.65202774	      0.79945008	     -0.15722992	      1.13893213	      6.98339979	      5.42605844	      0.09470259	     29.57442345	      3.16656916	      0.00000000	      3.63962087	     -0.34037562	     -7.69155335	     13.32497444	      0.23256468	     32.56275922	     -2.35408041	      0.00000000	     -0.20657181	      0.63679759	     -0.94056437	     -0.38362451	      0.84694080	     -0.99934964	     -0.33937683	      1.54830966	     -0.99934964	     -0.23609093	      1.54830966	     -0.82299382	     -0.19182259	      1.29855765	     -0.76420855	     -0.11803513	      0.98639947	     -0.70542328	     -1.47552181	      7.20358171	     -5.23113684	      0.00000000	      0.00000000	     25.10953787	      1.85652279	      3.75663157	    -12.94126440	    -18.64359864	      7.06221334	     43.10718388	     87.87649277	     -3.20448216	     -0.27952901	     15.83660059	     -9.22319443	      4.21434642	     58.70481056	     80.64223913	    -14.98783937	     -1.14427452
      6.21666667	     -0.21144696	     -7.59825972	     89.94207660	      0.13277778	      0.65199748	      0.79906349	     -0.23760984	      1.18839099	      6.61305033	      5.38133801	      0.09392207	     29.58898451	      3.35316316	      0.00000000	      3.63142433	     -0.37573172	     -7.29125950	     13.28248003	      0.23182301	     32.70077661	     -2.18279253	      0.00000000	     -0.21014480	      0.62900558	     -0.97732033	     -0.39025990	      0.83657742	     -1.03840285	     -0.34524688	      1.52936417	     -1.03840285	     -0.24017449	      1.52936417	     -0.85515529	     -0.19514046	      1.28266818	     -0.79407277	     -0.12007674	      0.97432965	     -0.73299025	     -1.50104326	      7.11543694	     -5.43556247	      0.00000000	      0.00000000	     25.30124868	      1.58987973	      3.71705685	    -13.09934714	    -18.55490692	      7.14788689	     42.67633341	     87.84650261	     -3.08876785	     -1.30792112	     16.06417721	     -9.08418304	      4.04247660	     58.53317540	     79.69323174	    -15.27894307	     -1.24358591
      6.23333333	     -0.16729983	     -7.52801740	     90.22701470	      0.13271729	      0.65205460	      0.79851144	     -0.40282776	      1.24636582	      6.18232598	      5.31430184	      0.09275206	     29.63378399	      3.57283811	      0.00000000	      3.55696800	     -0.43619588	     -7.00642589	     13.24013538	      0.23108396	     32.86502911	     -1.80622866	      0.00000000	     -0.21784018	      0.62110019	     -1.00857498	     -0.40455101	      0.82606325	     -1.07161091	     -0.35788964	      1.51014301	     -1.07161091	     -0.24896955	      1.51014301	     -0.88250311	     -0.20228639	      1.26654751	     -0.81946717	     -0.12447388	      0.96208420	     -0.75643123	     -1.55601065	      7.02600959	     -5.60939145	      0.00000000	      0.00000000	     25.43447815	      1.29910788	      3.47775566	    -13.30363432	    -18.47737199	      7.30476336	     42.35631928	     87.64975676	     -3.03823717	     -1.58261109	     16.29270907	     -9.02099553	      4.03069863	     58.41405288	     78.92592821	    -15.45176467	     -1.23518355
